<svg id="Layer_1" data-name="Layer 1" xmlns="http://www.w3.org/2000/svg" viewBox="0 0 625.37 145.06"><defs><style>.cls-1,.cls-2{fill:#213f80;}.cls-2{font-size:74.44px;font-family:Bauhaus93, "Bauhaus 93";}</style></defs><title>3 sirdaryo.qayta</title><path class="cls-1" d="M292.76,57.64q-14.92,2.19-29.84,4.51T233.15,66.9c-19.81,3.35-39.61,6.89-59,11.57-4.84,1.17-9.65,2.43-14.34,3.88-2.35.72-4.65,1.5-6.87,2.36a34.88,34.88,0,0,0-6.06,2.91l-.57.4-.46.37a1.9,1.9,0,0,0-.38.43s.08-.11.15-.33a1.82,1.82,0,0,0,0-.78c-.1-.56-.29-.7-.19-.62a8.28,8.28,0,0,0,1.94,1.08,29,29,0,0,0,3.08,1.09,113.09,113.09,0,0,0,14.15,2.92c9.75,1.52,19.72,2.56,29.68,3.56l30,2.84c10,1,20.09,1.93,30.2,3.12,5,.6,10.12,1.27,15.22,2.09A145.92,145.92,0,0,1,285.24,107a52,52,0,0,1,8.18,3,23.08,23.08,0,0,1,4.61,2.83,14.62,14.62,0,0,1,2.55,2.63,10.74,10.74,0,0,1,2.2,6,13.47,13.47,0,0,1,0,1.42,9.74,9.74,0,0,1-.54,2.59,10.07,10.07,0,0,1-.92,2.08,8.05,8.05,0,0,1-.52.89l-.53.72a18.37,18.37,0,0,1-2.14,2.38c-.68.59-1.38,1.2-2,1.69a44.36,44.36,0,0,1-7.71,4.49c-1.26.62-2.5,1.12-3.75,1.67s-2.49,1-3.73,1.48c-2.48.92-4.94,1.82-7.42,2.59-5,1.57-9.9,3-14.85,4.25-9.91,2.53-19.84,4.65-29.79,6.56s-19.92,3.59-29.92,5c-20,3-40,5.35-60.2,6.78l-.23-1.38c19.47-5.39,39-10.18,58.5-15.05s38.92-9.77,57.89-15.44c4.75-1.39,9.45-2.85,14-4.46a127.25,127.25,0,0,0,13.2-5.2,36.64,36.64,0,0,0,5.36-3c.35-.25.59-.48.88-.69.14-.17.43-.39.4-.4s0,0,0,0-.05.05-.06.08,0,.11-.14.36a5.56,5.56,0,0,0-.14.76,1.93,1.93,0,0,0,0,.48,2.15,2.15,0,0,0,.07.5,2.83,2.83,0,0,0,.5,1.2c.12.14.08.06-.06-.07a9.22,9.22,0,0,0-1.78-1.16,39.53,39.53,0,0,0-5.91-2.35,134.78,134.78,0,0,0-13.89-3.6c-4.79-1-9.67-1.9-14.57-2.72-9.81-1.64-19.74-3-29.69-4.26l-30-3.78c-10-1.32-20-2.69-30.11-4.58a118.48,118.48,0,0,1-15.24-3.78,37.46,37.46,0,0,1-4-1.6,17,17,0,0,1-2.1-1.15A11.83,11.83,0,0,1,139.43,93a7.33,7.33,0,0,1-2-3.85,6.48,6.48,0,0,1,.11-2.64,7.23,7.23,0,0,1,.89-2.06,12.4,12.4,0,0,1,4.17-3.77,31.54,31.54,0,0,1,3.87-1.92c1.27-.54,2.52-1,3.78-1.44,2.5-.87,5-1.6,7.48-2.26,5-1.33,10-2.43,14.93-3.43,19.92-3.88,39.9-6.53,59.9-9q15-1.82,30-3.42t30-3Z" transform="translate(-137.31 -21.07)"/><text class="cls-2" transform="translate(141.92 106.82) scale(0.8 1)">IRDARYOLIKLAR24</text><path class="cls-1" d="M335.85,68.61S531.43,47.48,541.49,21.07c0,0,106.26,43.77,164.11,47.54" transform="translate(-137.31 -21.07)"/></svg>