<svg id="Layer_1" data-name="Layer 1" xmlns="http://www.w3.org/2000/svg" viewBox="0 0 674.77 232.15"><defs><style>.cls-1{fill:#1f2054;}.cls-2{font-size:74.44px;font-family:Bauhaus93, "Bauhaus 93";}.cls-2,.cls-3{fill:#212053;}</style></defs><title>yangi sirdaryo3</title><path class="cls-1" d="M359.44,197.73q-26.93,3.79-53.8,7.83T252,213.88c-17.87,2.91-35.71,6-53.49,9.29s-35.49,6.9-53,11.08c-8.75,2.08-17.45,4.31-25.95,6.89-4.25,1.3-8.44,2.69-12.5,4.25-2,.77-4,1.6-5.9,2.48a44.58,44.58,0,0,0-5.3,2.84c-.39.25-.73.51-1.11.76s-.65.51-.93.76a5.49,5.49,0,0,0-1,1.12s0,0,0,0,.09-.11.07-.17.08-.22.06-.35a1.93,1.93,0,0,0,0-.41c-.1-.57-.24-.57.08-.28a9.55,9.55,0,0,0,1.56,1.1,22.17,22.17,0,0,0,2.39,1.19,53.57,53.57,0,0,0,5.71,2.06c4,1.22,8.29,2.21,12.6,3.09s8.69,1.63,13.1,2.33c17.63,2.81,35.59,4.74,53.56,6.61L236,273.83c9,.88,18.08,1.78,27.13,2.75s18.12,1.94,27.19,3.08,18.17,2.36,27.3,3.88a267.09,267.09,0,0,1,27.61,5.88,94.12,94.12,0,0,1,14.32,5.24c1.25.62,2.49,1.25,3.79,2a32.3,32.3,0,0,1,4,2.76,23.2,23.2,0,0,1,4.14,4.27A17.71,17.71,0,0,1,374.6,311a16.91,16.91,0,0,1-.65,8.5,21.34,21.34,0,0,1-3.18,5.91,35.11,35.11,0,0,1-7,6.7,79.56,79.56,0,0,1-13.45,7.82c-4.44,2.09-8.85,3.9-13.27,5.58s-8.82,3.25-13.26,4.65c-8.86,2.83-17.72,5.34-26.6,7.7s-17.79,4.43-26.7,6.44-17.84,3.87-26.79,5.64q-26.8,5.29-53.74,9.56C154,385.15,118,389.9,81.81,393.2l-.34-2c35.23-9,70.55-17.12,105.72-25.62,17.58-4.24,35.15-8.49,52.62-12.94,8.73-2.24,17.46-4.47,26.13-6.83s17.33-4.73,25.9-7.28,17.1-5.12,25.44-8a230.23,230.23,0,0,0,24.11-9.46,69.63,69.63,0,0,0,10.09-5.68,15.72,15.72,0,0,0,2.9-2.55c.2-.25.2-.34.09,0a3.82,3.82,0,0,0-.06,1.81,2.23,2.23,0,0,0,.43,1.09,2.73,2.73,0,0,0-.58-.6,18.76,18.76,0,0,0-3.73-2.39,72.55,72.55,0,0,0-11.07-4.37,247.18,247.18,0,0,0-25.32-6.4c-8.69-1.79-17.51-3.35-26.37-4.79-17.73-2.88-35.64-5.21-53.59-7.46l-54-6.64c-18-2.33-36.07-4.72-54.16-8.06-4.52-.85-9-1.78-13.58-2.84s-9.08-2.26-13.68-3.81a65.06,65.06,0,0,1-7-2.78,34.25,34.25,0,0,1-3.62-2,20.37,20.37,0,0,1-3.82-3,13.76,13.76,0,0,1-1-1.11,11.59,11.59,0,0,1-2.28-5,10.65,10.65,0,0,1,.18-4.12,10.61,10.61,0,0,1,.61-1.78c.24-.5.51-1,.79-1.49a17,17,0,0,1,3.53-3.89c.59-.47,1.17-.9,1.75-1.32s1.16-.76,1.73-1.11a55.55,55.55,0,0,1,6.77-3.39c2.24-1,4.47-1.81,6.7-2.58,4.46-1.56,8.91-2.89,13.37-4.1,8.92-2.42,17.85-4.41,26.79-6.26,17.9-3.61,35.84-6.57,53.81-9.28s35.95-5.14,53.95-7.42,36-4.4,54-6.42,36.06-3.83,54.1-5.62Z" transform="translate(-80.95 -161.05)"/><text class="cls-2" transform="translate(191.32 119.12) scale(0.8 1)">IRDARYOLIKLAR24</text><path class="cls-3" d="M287.65,219.2s239.2-25.85,251.51-58.15c0,0,130,53.53,200.72,58.15" transform="translate(-80.95 -161.05)"/></svg>